# xmcd
#
# Track frame offsets:
#	150
#	13487
#	31046
#	49725
#	65077
#	82385
#	95097
#	111513
#	128588
#	144470
#	159314
#	174184
#	191134
#
# Disc length: 2750 seconds
#
# Revision: 1
# Processed by: cddbd v1.5.2PL0 Copyright (c) Steve Scherf et al.
# Submitted via: audiograbber 1.83.01
#
DISCID=b80abc0d
DTITLE=Various Artist - CDX 572
DYEAR=2013
DGENRE=Country
TTITLE0=Lauren Alaina - Barefoot And Buckwild
TTITLE1=Love And Theft - If You Ever Get Lonely
TTITLE2=Chris Stapleton - What Are You Listening To
TTITLE3=Rob Baird - Dreams And Gasoline
TTITLE4=Aaron Lewis  - Granddaddy's Gun
TTITLE5=Cerrito - Hot Pepper Doll
TTITLE6=Kayla Calabrese - Kiss Me
TTITLE7=Sherry Kennedy - Mama He Treats Your Daughter Mean
TTITLE8=Denae Gardner - Sound Of A Woman Saying Goodbye
TTITLE9=Philip Claypool - Strong One
TTITLE10=Taylor Made - That's How I Roll
TTITLE11=Livewire - Whiskey Sunday
TTITLE12=Clinton Gregory - You Smile
EXTD=
EXTT0=
EXTT1=
EXTT2=
EXTT3=
EXTT4=
EXTT5=
EXTT6=
EXTT7=
EXTT8=
EXTT9=
EXTT10=
EXTT11=
EXTT12=
PLAYORDER=
